<?xml version="1.0" encoding="iso-8859-1"?>
<!-- Generator: Adobe Illustrator 19.0.0, SVG Export Plug-In . SVG Version: 6.00 Build 0)  -->
<svg version="1.1" id="Capa_1" xmlns="http://www.w3.org/2000/svg" xmlns:xlink="http://www.w3.org/1999/xlink" x="0px" y="0px"
	 viewBox="0 0 477.926 477.926" style="enable-background:new 0 0 477.926 477.926;" xml:space="preserve">
<g>
	<g>
		<path d="M220.36,197.912L135.317,10.179c-3.888-8.586-14.001-12.395-22.587-8.507c-0.21,0.095-0.418,0.194-0.624,0.298
			C59.631,28.412,19.676,74.45,0.883,130.124c-2.914,8.728,1.615,18.195,10.24,21.402l187.733,69.444
			c1.909,0.696,3.924,1.054,5.956,1.058c9.426,0.003,17.069-7.636,17.071-17.062C221.884,202.533,221.365,200.128,220.36,197.912z
			 M39.266,125.516c15.259-34.741,40.584-64.109,72.704-84.309l60.416,133.564L39.266,125.516z"/>
	</g>
</g>
<g>
	<g>
		<path d="M316.93,42.786c-19.813-5.647-40.316-8.505-60.918-8.492c-19.294,0.057-38.498,2.639-57.122,7.68
			c-9.064,2.584-14.318,12.027-11.734,21.092c2.523,8.851,11.61,14.107,20.54,11.881c100.675-27.311,204.428,32.163,231.739,132.838
			s-32.163,204.428-132.838,231.739c-100.675,27.311-204.428-32.163-231.739-132.838c-9.073-33.447-8.77-68.746,0.878-102.032
			c2.444-9.103-2.955-18.464-12.058-20.908c-8.88-2.384-18.052,2.695-20.744,11.487C9.37,312.992,77.623,435.664,195.381,469.228
			s240.431-34.688,273.995-152.447S434.689,76.351,316.93,42.786z"/>
	</g>
</g>
<g>
</g>
<g>
</g>
<g>
</g>
<g>
</g>
<g>
</g>
<g>
</g>
<g>
</g>
<g>
</g>
<g>
</g>
<g>
</g>
<g>
</g>
<g>
</g>
<g>
</g>
<g>
</g>
<g>
</g>
</svg>
